# xmcd
#
# Track frame offsets:
#	150
#	17005
#	34724
#	54059
#	74782
#	97205
#	114087
#	131806
#	151254
#	171752
#	194309
#	212044
#	221671
#	242797
#	261712
#
# Disc length: 3797 seconds
#
# Revision: 1
# Processed by: cddbd v1.5.2PL0 Copyright (c) Steve Scherf et al.
# Submitted via: EZCDAudioConverter 8.0.2.1
#
DISCID=de0ed30f
DTITLE=Quách Tuấn Du - Yêu Trong Hoang Mang
DYEAR=2011
DGENRE=World Pop
TTITLE0=Quách Tuấn Du - Đợi em trong mơ
TTITLE1=Quách Tuấn Du - Ngọn đèn khuya
TTITLE2=Quách Tuấn Du - Hạnh phúc trong mơ
TTITLE3=Quách Tuấn Du - Ru trong xót xa
TTITLE4=Quách Tuấn Du - BHM
TTITLE5=Soundtrack - Đợi em trong mơ
TTITLE6=Soundtrack - Ngọn đèn khuya
TTITLE7=Soundtrack - Hạnh phúc trong mơ
TTITLE8=Soundtrack - Ru trong xót xa
TTITLE9=Soundtrack - Yêu rất thật
TTITLE10=Soundtrack - Tình yêu sẽ ấm lại
TTITLE11=Soundtrack - Mùa đông ấm áp
TTITLE12=Soundtrack - Kim đồng hồ quay ngược
TTITLE13=Soundtrack - Nghi ngờ
TTITLE14=Soundtrack - Mong thế giới bình yên
EXTD=
EXTT0=
EXTT1=
EXTT2=
EXTT3=
EXTT4=
EXTT5=
EXTT6=
EXTT7=
EXTT8=
EXTT9=
EXTT10=
EXTT11=
EXTT12=
EXTT13=
EXTT14=
PLAYORDER=
